<svg width="1358" height="800" viewBox="0 0 1358 800" fill="none" xmlns="http://www.w3.org/2000/svg">
<g opacity="0.2">
<path d="M797.167 -223.018C797.126 -223.018 797.085 -223.018 797.044 -223.006C797.014 -223.006 796.985 -223.006 796.956 -223L795.065 -222.465L385.833 -169.832L383.52 -169.832C383.52 -169.832 383.473 -169.815 383.45 -169.815C383.397 -169.809 383.35 -169.803 383.297 -169.785C383.245 -169.762 383.203 -169.732 383.162 -169.697C383.145 -169.685 383.121 -169.68 383.11 -169.662L226.966 -15.7225L85.5026 118.822C85.485 118.839 85.4733 118.863 85.4557 118.886C85.4322 118.921 85.4028 118.951 85.3852 118.986C85.3676 119.021 85.3559 119.062 85.35 119.098C85.3441 119.127 85.3265 119.151 85.3265 119.174L84.5282 125.966L20.9905 519.722L19.975 524.176C19.975 524.176 19.975 524.199 19.975 524.217C19.9691 524.258 19.975 524.299 19.975 524.34C19.975 524.381 19.975 524.416 19.9926 524.452C19.9926 524.463 19.9926 524.481 19.9926 524.493L98.2701 756.33L98.2701 756.336C98.2818 756.371 98.3053 756.395 98.3229 756.424C98.3405 756.459 98.3581 756.501 98.3816 756.536L98.3816 756.542L98.3875 756.542L204.923 880.727C204.923 880.727 204.953 880.751 204.97 880.762C204.982 880.774 204.994 880.792 205.012 880.809L394.973 1029.16C394.973 1029.16 394.985 1029.16 394.991 1029.17C395.02 1029.2 395.061 1029.21 395.096 1029.23C395.131 1029.24 395.167 1029.26 395.202 1029.27C395.208 1029.27 395.214 1029.27 395.225 1029.27L557.521 1059.24L775.583 1100.07C775.612 1100.07 775.636 1100.07 775.665 1100.07C775.706 1100.07 775.747 1100.07 775.788 1100.07C775.829 1100.07 775.865 1100.05 775.906 1100.04C775.929 1100.03 775.958 1100.03 775.982 1100.01L947.359 1003.67L1122.84 924.071C1122.84 924.071 1122.89 924.042 1122.92 924.024C1122.93 924.012 1122.95 924.006 1122.97 923.989C1123.02 923.948 1123.07 923.895 1123.1 923.836L1234.92 734.949L1326.48 585.14C1326.48 585.14 1326.5 585.105 1326.51 585.081C1326.51 585.064 1326.52 585.046 1326.53 585.029C1326.55 584.964 1326.57 584.899 1326.57 584.835C1326.57 584.829 1326.57 584.817 1326.57 584.811L1316.3 347.157C1316.3 347.157 1316.29 347.139 1316.29 347.128C1316.29 347.092 1316.29 347.051 1316.28 347.016L1272.84 200.427C1272.84 200.427 1272.83 200.415 1272.83 200.403C1272.81 200.374 1272.81 200.339 1272.79 200.309L1153.05 -20.852L1153.05 -20.858C1153.05 -20.858 1153.05 -20.8578 1153.05 -20.8637C1153.02 -20.9225 1152.97 -20.9695 1152.92 -21.0165C1152.91 -21.0282 1152.9 -21.0341 1152.89 -21.0459C1152.88 -21.0459 1152.88 -21.0577 1152.86 -21.0635L1011.4 -117.152C1011.4 -117.152 1011.38 -117.158 1011.37 -117.164C1011.35 -117.176 1011.34 -117.188 1011.33 -117.193L797.378 -222.947C797.378 -222.947 797.326 -222.959 797.296 -222.971C797.255 -222.983 797.214 -223 797.173 -223.006L797.167 -223.018ZM1010.77 -116.171L1143.13 -26.2693L810.604 -215.115L1010.78 -116.171L1010.77 -116.171ZM1271.73 200.809L1313.22 340.835L1157.34 -10.4699L1271.72 200.809L1271.73 200.809ZM1325.39 584.67L1235.23 732.182L1315.27 350.676L1325.39 584.67ZM1122.18 923.072L949.261 1001.51L1232.35 736.97L1122.18 923.072ZM395.578 1028.15L209.279 882.66L554.751 1057.53L395.583 1028.15L395.578 1028.15ZM99.3443 755.866L22.9335 529.546L203.344 877.09L99.3443 755.86L99.3443 755.866ZM57.7196 363.808C57.7196 363.808 57.7196 363.779 57.7196 363.761C57.7196 363.755 57.7196 363.75 57.7196 363.744L86.2129 121.63L135.563 312.474L21.8182 521.355L57.7196 363.802L57.7196 363.808ZM227.787 -14.8706L382.616 -167.511L311.09 39.1256L87.7919 118.287L227.781 -14.8589L227.787 -14.8706ZM86.4712 119.538L86.7471 119.274L310.614 39.913L136.009 311.792L86.4184 120.02L86.4771 119.532L86.4712 119.538ZM383.767 -168.646L384.894 -168.646L589.355 -126.206L311.864 38.6849L383.567 -168.446L383.773 -168.646L383.767 -168.646ZM797.061 -221.802L797.143 -221.76L895.984 -36.9275L590.986 -126.406L795.547 -221.373L797.067 -221.802L797.061 -221.802ZM1152.08 -20.1763L1152.18 -19.9942L1134.39 176.184L897.393 -36.1049L1151.86 -20.335L1152.08 -20.1822L1152.08 -20.1763ZM1315.12 347.263L1134.93 486.707L1134.93 177.477L1315.03 346.94L1315.12 347.263ZM1233.91 734.344L1233.85 734.444L1015.2 773.622L1134.63 488.064L1233.95 734.273L1233.92 734.332L1233.91 734.344ZM946.842 1002.62C946.842 1002.62 946.83 1002.63 946.819 1002.63C946.813 1002.63 946.801 1002.63 946.795 1002.64L946.784 1002.64L722.823 876.015L1014.27 774.48L946.948 1002.56L946.836 1002.61L946.842 1002.62ZM557.733 1058.09L557.539 1058.06L412.947 860.997L721.484 876.215L557.75 1058.09L557.738 1058.09L557.733 1058.09ZM205.775 879.922L205.681 879.811L214.732 614.165L411.785 860.427L205.88 880.004L205.775 879.922ZM646.758 375.912L906.045 260.71L842.138 585.963L646.758 375.912ZM841.709 586.368L516.759 629.401L646.33 376.311L841.709 586.362L841.709 586.368ZM646.5 375.383L611.056 100.978L905.775 260.193L646.506 375.389L646.5 375.383ZM645.919 375.46L368.012 332.28L610.475 101.054L645.919 375.46ZM645.813 376.035L516.249 629.113L367.894 332.85L645.813 376.03L645.813 376.035ZM841.844 586.938L722.036 875.375L516.812 629.982L841.844 586.938ZM906.62 260.804L1134.09 487.159L842.701 586.133L906.626 260.798L906.62 260.804ZM611.338 100.455L896.283 -36.005L906.127 259.705L611.338 100.455ZM367.566 331.892L311.688 39.7073L610.082 100.613L367.566 331.892ZM515.756 629.442L214.944 613.09L367.366 333.109L515.756 629.442ZM515.803 630.035L412.278 860.104L215.102 613.689L515.803 630.035ZM516.319 630.311L721.461 875.61L412.795 860.386L516.319 630.311ZM842.402 587.12L1014.19 773.874L722.635 875.445L842.396 587.12L842.402 587.12ZM842.83 586.715L1134.1 487.776L1014.62 773.463L842.83 586.715ZM906.973 260.328L1134.33 177.201L1134.33 486.584L906.973 260.328ZM906.72 259.793L896.882 -35.7818L1134.07 176.672L906.72 259.793ZM610.945 99.9904L590.476 -125.954L895.743 -36.3929L610.945 99.9963L610.945 99.9904ZM610.364 100.073L312.123 39.1962L589.895 -125.866L610.364 100.073ZM367.014 332.151L136.39 312.25L311.166 40.1127L367.014 332.151ZM366.902 332.733L214.556 612.567L136.267 312.826L366.902 332.727L366.902 332.733ZM214.016 612.838L21.1549 524.27L21.3369 523.465L135.786 313.302L214.022 612.843L214.016 612.838ZM21.4073 525.027L214.163 613.548L205.111 879.153L205.017 879.041L21.7008 525.903L21.4073 525.033L21.4073 525.027ZM206.555 880.533L412.219 860.979L556.67 1057.85L206.878 880.786L206.549 880.533L206.555 880.533ZM558.425 1058.22L722.177 876.315L946.185 1002.97L558.537 1058.24L558.425 1058.22ZM1014.95 774.262L1233.45 735.114L1233.42 735.172L947.676 1002.19L1014.95 774.262ZM1134.98 487.389L1315.16 347.968L1315.17 348.303L1234.32 733.633L1134.98 487.389ZM1314.7 345.811L1134.93 176.672L1152.68 -19.0658L1153.78 -17.0446L1314.51 345.195L1314.69 345.811L1314.7 345.811ZM1150.9 -20.9871L896.747 -36.7394L798.042 -221.326L801.423 -219.651L1149.18 -22.1506L1150.9 -20.9871L1150.9 -20.9871ZM590.112 -126.659L387.741 -168.669L610.692 -169.245C610.692 -169.245 610.745 -169.256 610.769 -169.262C610.798 -169.262 610.821 -169.262 610.851 -169.268L791.984 -220.38L590.112 -126.659ZM560.339 1058.57L944.776 1003.77L775.589 1098.88L560.339 1058.57ZM791.209 -221.379L610.61 -170.414L390.535 -169.844L791.209 -221.379ZM82.9257 139.58L56.569 363.567L23.0274 510.779L82.9257 139.58Z" fill="#8C94AD"/>
<path d="M609.93 -170.843L609.66 -170.361L227.054 -16.1221C227.054 -16.1221 227.025 -16.1044 227.007 -16.0985C226.984 -16.0868 226.96 -16.0751 226.937 -16.0632C226.925 -16.0574 226.919 -16.0515 226.908 -16.0457C226.884 -16.0339 226.867 -16.0164 226.843 -15.9987C226.831 -15.9869 226.82 -15.981 226.808 -15.9692C226.808 -15.9692 226.802 -15.9634 226.796 -15.9575C226.79 -15.9517 226.778 -15.9398 226.773 -15.934C226.755 -15.9164 226.737 -15.8928 226.72 -15.8753C226.708 -15.8577 226.69 -15.8458 226.679 -15.8283C226.679 -15.8224 226.667 -15.8164 226.661 -15.8047C226.649 -15.7871 226.638 -15.7637 226.626 -15.7401C226.614 -15.7166 226.602 -15.699 226.591 -15.6755C226.591 -15.6755 226.591 -15.6696 226.585 -15.6637L56.3526 363.309C56.3526 363.309 56.3467 363.333 56.3409 363.344C56.335 363.362 56.3291 363.374 56.3233 363.391C56.3233 363.391 56.3233 363.397 56.3233 363.403C56.3233 363.421 56.3115 363.438 56.3115 363.456C56.3115 363.474 56.3057 363.491 56.2998 363.509C56.2998 363.521 56.2939 363.538 56.2939 363.55C56.2939 363.55 56.2939 363.562 56.2939 363.568C56.2939 363.585 56.2939 363.603 56.2939 363.62C56.2939 363.644 56.2939 363.662 56.2939 363.679C56.2939 363.691 56.2939 363.703 56.2939 363.72C56.2939 363.726 56.2939 363.738 56.2939 363.744C56.2939 363.744 56.2939 363.756 56.2939 363.761L97.9715 756.248C97.9715 756.248 97.9773 756.289 97.9832 756.307C97.9832 756.324 97.9832 756.348 97.9949 756.365C97.9949 756.377 98.0008 756.383 98.0067 756.389C98.0126 756.418 98.0243 756.448 98.036 756.477C98.036 756.483 98.036 756.495 98.0478 756.501C98.0478 756.501 98.0478 756.512 98.0536 756.518C98.0536 756.53 98.0654 756.542 98.0713 756.553C98.083 756.577 98.1006 756.606 98.1182 756.63C98.1358 756.653 98.1476 756.677 98.1652 756.7C98.1828 756.724 98.2004 756.741 98.2239 756.765C98.2356 756.777 98.2415 756.788 98.2532 756.8C98.2532 756.8 98.2532 756.8 98.2532 756.806L394.757 1029.35C394.774 1029.37 394.798 1029.38 394.815 1029.4C394.833 1029.41 394.851 1029.43 394.874 1029.44C394.88 1029.44 394.886 1029.45 394.892 1029.45C394.915 1029.47 394.939 1029.48 394.962 1029.49C394.986 1029.5 395.003 1029.51 395.027 1029.52C395.032 1029.52 395.038 1029.52 395.044 1029.53C395.068 1029.53 395.091 1029.54 395.115 1029.54C395.121 1029.54 395.132 1029.54 395.138 1029.55C395.15 1029.55 395.162 1029.56 395.179 1029.56L395.191 1029.56L775.543 1100.36C775.543 1100.36 775.548 1100.36 775.554 1100.36C775.566 1100.36 775.572 1100.36 775.584 1100.36C775.613 1100.36 775.636 1100.36 775.666 1100.36C775.689 1100.36 775.713 1100.36 775.736 1100.36L775.748 1100.36C775.748 1100.36 775.748 1100.36 775.754 1100.36C775.777 1100.36 775.801 1100.35 775.824 1100.34C775.848 1100.34 775.877 1100.34 775.901 1100.33C775.906 1100.33 775.918 1100.33 775.924 1100.33C775.942 1100.33 775.959 1100.32 775.977 1100.31C775.977 1100.31 775.983 1100.31 775.989 1100.31C776.012 1100.31 776.036 1100.3 776.059 1100.29C776.071 1100.29 776.077 1100.28 776.088 1100.28C776.088 1100.28 776.094 1100.28 776.1 1100.28L1123 924.318C1123 924.318 1123.02 924.306 1123.02 924.306C1123.05 924.294 1123.06 924.283 1123.09 924.271C1123.1 924.265 1123.1 924.259 1123.12 924.253C1123.13 924.242 1123.15 924.224 1123.17 924.212C1123.18 924.2 1123.2 924.195 1123.21 924.183C1123.21 924.183 1123.22 924.171 1123.22 924.171C1123.23 924.165 1123.24 924.153 1123.24 924.148C1123.26 924.13 1123.27 924.112 1123.29 924.101C1123.3 924.083 1123.32 924.065 1123.33 924.048C1123.33 924.036 1123.34 924.024 1123.35 924.012C1123.35 924.012 1123.35 924.007 1123.36 924.001L1326.74 585.293C1326.74 585.293 1326.75 585.275 1326.75 585.264C1326.77 585.228 1326.79 585.193 1326.81 585.158C1326.81 585.146 1326.81 585.14 1326.81 585.128C1326.81 585.117 1326.82 585.111 1326.82 585.099C1326.82 585.081 1326.84 585.064 1326.84 585.046C1326.86 584.982 1326.87 584.911 1326.87 584.841L1326.87 584.829C1326.87 584.829 1326.87 584.817 1326.87 584.811C1326.87 584.782 1326.87 584.752 1326.87 584.717L1273.15 200.474C1273.15 200.433 1273.14 200.398 1273.13 200.357C1273.13 200.345 1273.13 200.333 1273.11 200.321L1273.11 200.31C1273.09 200.239 1273.05 200.174 1273.01 200.116C1273.01 200.104 1273 200.092 1272.98 200.08C1272.98 200.075 1272.97 200.063 1272.97 200.051L1011.76 -117.211C1011.76 -117.211 1011.75 -117.217 1011.75 -117.223C1011.74 -117.229 1011.74 -117.234 1011.73 -117.24C1011.7 -117.276 1011.67 -117.311 1011.63 -117.34C1011.62 -117.34 1011.61 -117.346 1011.61 -117.352C1011.58 -117.375 1011.55 -117.393 1011.52 -117.411C1011.51 -117.411 1011.51 -117.416 1011.5 -117.422C1011.47 -117.44 1011.44 -117.452 1011.41 -117.463C1011.4 -117.463 1011.39 -117.475 1011.38 -117.475C1011.38 -117.475 1011.37 -117.475 1011.36 -117.475C1011.33 -117.487 1011.3 -117.493 1011.27 -117.499C1011.25 -117.499 1011.23 -117.511 1011.21 -117.511L611.574 -170.561C611.521 -170.802 611.374 -171.013 611.145 -171.143C610.722 -171.378 610.182 -171.225 609.948 -170.802L609.93 -170.843ZM720.886 532.625L765.217 930.129L323.23 701.206L720.886 532.625ZM321.715 698.662L408.868 197.93L719.618 529.975L321.715 698.662ZM723.792 532.219L1132.34 588.266L768.117 929.641L723.798 532.219L723.792 532.219ZM724.35 529.328L923.879 129.362L1133.11 585.405L724.35 529.328ZM721.749 527.959L410.952 195.856L921.373 127.799L721.749 527.954L721.749 527.959ZM319.356 698.509L58.5187 363.991L406.696 196.731L319.361 698.503L319.356 698.509ZM764.061 932.185L395.983 1027.62L321.492 702.963L764.061 932.185ZM1134.24 589.706L1121.75 922.679L769.667 931.404L1134.24 589.706ZM925.652 127.606L1271.11 201.238L1135.25 584.441L925.652 127.606ZM921.543 125.414L409.625 193.67L610.705 -168.604L921.549 125.414L921.543 125.414ZM406.743 194.734C406.743 194.734 406.743 194.751 406.743 194.763L58.9413 361.834L227.618 -13.6779L406.749 194.728L406.743 194.734ZM318.598 700.407L99.5916 755.061L58.3484 366.646L318.598 700.401L318.598 700.407ZM100.625 756.624L319.209 702.075C319.309 702.158 319.414 702.222 319.532 702.275L393.841 1026.14L100.631 756.624L100.625 756.624ZM399.388 1028.57L766.021 933.501C766.051 933.525 766.086 933.543 766.121 933.566L774.756 1098.43L399.388 1028.57ZM767.876 933.478C767.97 933.396 768.052 933.308 768.123 933.208L1118.72 924.518L776.505 1098.1L767.882 933.472L767.876 933.478ZM1136.05 588.383C1136.18 588.29 1136.3 588.178 1136.39 588.049L1324.42 585.734L1123.61 920.152L1136.06 588.383L1136.05 588.383ZM1136.47 586.286L1271.9 204.281L1324.98 583.965L1136.47 586.286ZM925.083 125.684C925.053 125.62 925.03 125.561 924.989 125.502L1011.37 -114.919L1269.99 199.199L925.077 125.684L925.083 125.684ZM1009.88 -115.942L923.398 124.744L613.288 -168.587L1009.88 -115.942L1009.88 -115.942ZM407.823 193.288L228.851 -14.9352L608.298 -167.905L407.823 193.288Z" fill="#657092"/>
<path d="M625.452 74.8805L640.288 100.222L625.452 125.562L595.831 125.562L581.046 100.222L595.831 74.8805L625.452 74.8805Z" fill="#3F4C77"/>
<path d="M857.256 558.257L872.092 583.598L857.256 608.939L827.636 608.939L812.851 583.598L827.636 558.257L857.256 558.257Z" fill="#3F4C77"/>
<path d="M98.9184 93.8434L112.288 116.771L98.9184 139.698L72.2253 139.698L58.9019 116.771L72.2253 93.8434L98.9184 93.8434Z" fill="#3F4C77"/>
<path d="M1328.86 326.567L1342.23 349.495L1328.86 372.422L1302.17 372.422L1288.85 349.495L1302.17 326.567L1328.86 326.567Z" fill="#3F4C77"/>
<path d="M1098.71 487.319L1127.29 470.828L1155.88 454.393L1155.88 487.319L1155.88 520.245L1127.29 503.754L1098.71 487.319Z" fill="#3F4C77"/>
<path d="M977.483 773.914L1006.07 757.423L1034.66 740.988L1034.66 773.914L1034.66 806.84L1006.07 790.349L977.483 773.914Z" fill="#3F4C77"/>
<path d="M172.213 -15.6212L214.578 -40.0563L256.942 -64.4069L256.942 -15.6212L256.942 33.1645L214.578 8.72942L172.213 -15.6212Z" fill="#3F4C77"/>
<path d="M1217.9 201.586L1260.26 177.151L1302.63 152.8L1302.63 201.586L1302.63 250.371L1260.26 225.936L1217.9 201.586Z" fill="#3F4C77"/>
<path d="M655.101 530.502L709.865 498.987L764.629 467.581L764.629 530.502L764.629 593.424L709.865 561.908L655.101 530.502Z" fill="#3F4C77"/>
<path d="M315.566 639.615L256.431 698.533L315.566 757.451L374.701 698.533L315.566 639.615Z" fill="#3F4C77"/>
<path d="M410.98 156.731L375.03 192.549L410.98 228.366L446.929 192.549L410.98 156.731Z" fill="#3F4C77"/>
<path d="M646.644 342.536L615.433 373.632L646.644 404.728L677.855 373.632L646.644 342.536Z" fill="#3F4C77"/>
<path d="M1135.27 540.35L1089.08 586.367L1135.27 632.383L1181.46 586.367L1135.27 540.35Z" fill="#3F4C77"/>
<path d="M63.6447 324.093L19.562 368.013L63.6448 411.934L107.727 368.013L63.6447 324.093Z" fill="#3F4C77"/>
<path d="M926.504 80.1294L882.422 124.05L926.504 167.971L970.587 124.05L926.504 80.1294Z" fill="#3F4C77"/>
<path d="M1316.4 539.716L1272.32 583.637L1316.4 627.557L1360.48 583.637L1316.4 539.716Z" fill="#3F4C77"/>
<path d="M924.052 260.214C924.052 250.479 916.168 242.588 906.442 242.588C896.716 242.588 888.832 250.479 888.832 260.214C888.832 269.949 896.716 277.841 906.442 277.841C916.168 277.841 924.052 269.949 924.052 260.214Z" fill="#3F4C77"/>
<path d="M384.986 332.484C384.986 322.749 377.102 314.858 367.376 314.858C357.65 314.858 349.766 322.749 349.766 332.484C349.766 342.219 357.65 350.111 367.376 350.111C377.102 350.111 384.986 342.219 384.986 332.484Z" fill="#3F4C77"/>
<path d="M533.859 629.77C533.859 620.035 525.975 612.143 516.249 612.143C506.523 612.143 498.639 620.035 498.639 629.77C498.639 639.505 506.523 647.396 516.249 647.396C525.975 647.396 533.859 639.505 533.859 629.77Z" fill="#3F4C77"/>
<path d="M232.077 613.365C232.077 603.63 224.193 595.738 214.467 595.738C204.741 595.738 196.857 603.63 196.857 613.365C196.857 623.1 204.741 630.992 214.467 630.992C224.193 630.992 232.077 623.1 232.077 613.365Z" fill="#3F4C77"/>
<path d="M153.497 312.508C153.497 302.773 145.613 294.881 135.887 294.881C126.161 294.881 118.277 302.773 118.277 312.508C118.277 322.243 126.161 330.135 135.887 330.135C145.613 330.135 153.497 322.243 153.497 312.508Z" fill="#3F4C77"/>
<path d="M328.932 39.3402C328.932 29.6052 321.048 21.7135 311.322 21.7135C301.596 21.7135 293.712 29.6052 293.712 39.3402C293.712 49.0751 301.596 56.9668 311.322 56.9668C321.048 56.9668 328.932 49.0751 328.932 39.3402Z" fill="#3F4C77"/>
<path d="M1152.24 176.788C1152.24 167.053 1144.36 159.162 1134.63 159.162C1124.91 159.162 1117.02 167.053 1117.02 176.788C1117.02 186.523 1124.91 194.415 1134.63 194.415C1144.36 194.415 1152.24 186.523 1152.24 176.788Z" fill="#3F4C77"/>
<path d="M41.0908 524.308C41.0908 512.951 31.8923 503.744 20.5455 503.744C9.19867 503.744 0.000242745 512.951 0.000243242 524.308C0.000243738 535.666 9.19867 544.873 20.5455 544.873C31.8923 544.873 41.0908 535.666 41.0908 524.308Z" fill="#3F4C77"/>
<path d="M1254.96 734.641C1254.96 723.284 1245.76 714.077 1234.42 714.077C1223.07 714.077 1213.87 723.284 1213.87 734.641C1213.87 745.999 1223.07 755.206 1234.42 755.206C1245.76 755.206 1254.96 745.999 1254.96 734.641Z" fill="#3F4C77"/>
</g>
</svg>
